PathFileType	4	(X/Y/Z)	Patient4_TMGait_0pt2_02_right_21.trc.trc
DataRate	CameraRate	NumFrames	NumMarkers	Units	OrigDataRate	OrigDataStartFrame	OrigNumFrames
46.204620462046	46.204620462046	4	33	mm	46.204620462046	36	       141
Frame#	Time	R.Midfoot.Superior			Sacral			L.Shoulder			Chest			R.Shoulder			Neck			R.ASIS			L.ASIS			R.Thigh.Superior			R.Thigh.Lateral			R.Thigh.Inferior			R.Patella			L.Thigh.Superior			L.Thigh.Lateral			L.Thigh.Inferior			L.Patella			L.Shank.Superior			L.Shank.Lateral			L.Shank.Inferior			R.Shank.Superior			R.Shank.Lateral			R.Shank.Inferior			R.Heel			R.Midfoot.Lateral			R.Toe			L.Heel			L.Midfoot.Lateral			L.Midfoot.Superior			L.Toe			L.Elbow			L.Wrist			R.Elbow			R.Wrist			
		X1	Y1	Z1	X2	Y2	Z2	X3	Y3	Z3	X4	Y4	Z4	X5	Y5	Z5	X6	Y6	Z6	X7	Y7	Z7	X8	Y8	Z8	X9	Y9	Z9	X10	Y10	Z10	X11	Y11	Z11	X12	Y12	Z12	X13	Y13	Z13	X14	Y14	Z14	X15	Y15	Z15	X16	Y16	Z16	X17	Y17	Z17	X18	Y18	Z18	X19	Y19	Z19	X20	Y20	Z20	X21	Y21	Z21	X22	Y22	Z22	X23	Y23	Z23	X24	Y24	Z24	X25	Y25	Z25	X26	Y26	Z26	X27	Y27	Z27	X28	Y28	Z28	X29	Y29	Z29	X30	Y30	Z30	X31	Y31	Z31	X32	Y32	Z32	X33	Y33	Z33	

36	47.217500000000	1217.184379751317	98.373851004771	624.609247540671	929.338154181960	1007.128021453743	500.293404865038	1157.795891321426	1437.171062836934	373.130766711430	1209.095150089993	1363.467003230887	554.000892700332	1082.649705927019	1439.387929724224	697.338006873087	1097.383554668016	1496.337965033691	520.222509118495	1133.331440551051	940.575169126866	661.066988059528	1169.674972572075	963.385035363014	388.540297079062	1195.439511062476	749.241476324158	627.512854095827	1119.538753108288	632.611236523055	680.042667757670	1208.010829155045	588.060979220781	606.429672906568	1216.163725148332	501.167956472656	612.805303009173	1170.904159360533	733.108745518319	404.171004528502	1066.813672007417	635.572649960935	322.150949950056	1126.245690416694	542.208163731010	387.178551699133	1114.030098885965	471.835073154113	388.138474119855	1073.238733167485	409.501503466414	372.547368929460	965.279919238332	317.391662482464	309.767517683253	994.144835192330	191.603165207764	370.403958194627	1192.112554683300	409.832301295939	619.177578824731	1122.837193467921	303.629210600383	680.256297599691	1172.416306437691	209.937950100404	619.851598485826	1046.279694510998	42.633850535682	591.685081894998	1131.209538037948	36.267713648744	664.106371777157	1338.369374171312	50.524378068325	648.412588719263	844.009119720241	47.441547796033	399.040431344007	918.947168353491	39.692086783578	320.023553397496	1006.017067325405	95.907873446996	347.751279827638	1131.285683790328	39.175093680003	318.611677003773	1316.200147491740	1144.497711266414	236.133252922483	1567.858494788884	1142.566914589069	303.296966882607	927.928819052119	1121.777064584230	778.921207009736	929.665720312447	859.951968800692	797.659923890923	
37	47.239142857143	1212.894862759774	98.393704242558	624.856213557206	929.770287672624	1007.782649100492	508.492878131603	1156.525962673557	1437.486084183456	377.142619248485	1210.611673554702	1363.989579117374	557.309799631673	1086.314897467345	1440.139622858354	702.357141683782	1098.499854354357	1496.947771219896	524.804420885197	1135.758743899493	941.053344294408	666.341388323878	1168.454578291237	963.838663702296	393.312770979623	1195.822279721224	748.709427182989	632.074022525675	1119.029747403480	632.550817732798	684.437843212723	1206.554147096371	587.591034880976	610.106493034971	1213.773711834023	500.619728867824	615.826828070523	1172.752113108948	734.601628581357	407.970667588867	1069.768368509044	635.923874154607	326.407765553986	1132.171445581387	542.770758261518	389.934071286728	1120.874898518923	471.099403360871	389.989524640633	1077.775966546397	409.566020694061	374.702673514172	967.114072994482	320.546130717138	312.003034784715	994.219226986335	193.460196937891	370.961566674027	1189.461866351534	409.397033515223	621.649248965734	1119.990384146105	303.051321611241	682.193860095717	1168.865501789465	209.616655089700	620.832356601121	1042.014204539116	42.615847576689	591.764308964035	1126.939567481741	36.253420133301	664.194633013865	1334.095949205538	50.531771938609	648.632707813117	841.082006766339	52.353346398403	398.759118266248	915.771463276263	42.488290286099	319.853103222148	1004.194206526735	96.695114534119	347.309512802969	1127.766259642083	37.743690177286	318.322666397536	1307.383336991762	1138.817675924572	241.486922202810	1558.979240013403	1123.875786008315	308.334972210894	935.192739646711	1121.604244745400	789.466609167547	941.126451565310	860.046297211279	810.793313607591	
38	47.260785714286	1208.573406515323	98.402912591522	625.085790209619	929.993787065855	1008.310419759760	516.590995939488	1154.709163786714	1437.654653011104	380.894980806546	1211.786509214629	1364.462304405518	560.289809829621	1089.859363386993	1440.875554762444	707.159168415405	1099.297399456083	1497.485672763848	529.182277132362	1138.005055474086	941.400374052122	671.331557053608	1166.935726318062	964.311456957242	397.855388625345	1195.976037417019	748.080142635524	636.376211380179	1118.288091757746	632.431137479505	688.657578841058	1204.822312874029	587.081049045033	613.609403866758	1211.059705565392	500.068026408336	618.741137064855	1175.438460524011	736.612642575691	411.671973760650	1074.419517150592	636.226149638776	330.566800221565	1140.259148760007	543.716459980275	392.725104564276	1130.022694395129	470.512212254348	391.798675803750	1084.316336794921	409.746340235649	376.939378568940	970.718597369224	324.491057445157	314.339053363001	995.282347052482	196.212466965149	371.719350886803	1186.587189824153	408.944212486721	624.036771991865	1116.983791514717	302.426774447132	684.063654029678	1165.231743852098	209.289853425520	621.774004048176	1037.714789491335	42.599961077588	591.833255607455	1122.625638568769	36.228730596177	664.264287519058	1329.780526005122	50.517957161710	648.834028999193	838.546004299154	59.432119071179	398.666265519890	912.755502633017	46.921432143135	319.867047095007	1002.773576877468	98.369600389132	347.073313982627	1123.922239376322	36.408032169404	318.291754510819	1296.876167841514	1132.587834674227	246.799217418216	1547.579870643215	1102.641964457684	312.848233230377	943.315449017393	1121.075568224026	799.971570965512	954.672615513824	859.943409716709	823.767851512712	
39	47.282428571429	1204.231208243367	98.400860497850	625.295361413393	930.037538857693	1008.653677348624	524.517098962972	1152.326806219486	1437.656177024699	384.385282200974	1212.554217455742	1364.867621280281	562.942553005288	1093.173043699063	1441.541197749864	711.723439530048	1099.718508847086	1497.919027690813	533.351749262971	1140.096568055064	941.630422658504	676.018382312416	1165.188035865320	964.758611078662	402.147409545655	1196.002860569214	747.390045783553	640.383626843619	1117.481332024923	632.257677786176	692.684483745471	1202.988699010431	586.549602228571	616.907961670275	1208.238483195353	499.505492649174	621.520632586820	1179.030739454915	739.161959396150	415.327804936428	1080.910082624499	636.539294064390	334.645587146345	1150.580739516637	545.153198368287	395.632294341979	1141.547713305499	470.200452849341	393.656582099643	1092.957099298448	410.130956452877	379.328278154299	976.225577181250	329.409176063236	316.839529034046	997.327444543358	200.108009388378	372.776543837347	1183.653373243389	408.460485767349	626.312088269263	1113.954550198738	301.767057490358	685.866244466413	1161.589266362870	208.944802482351	622.659425506774	1033.388061012054	42.583643549607	591.898492203451	1118.276009755252	36.193315482868	664.323699400376	1325.434305807510	50.491641620874	649.012643814253	836.418453987663	69.159986868214	398.879347268015	909.858367414785	53.449613270436	320.193380663230	1001.670373982224	101.268191054572	347.192647276386	1119.538942802113	35.364406066579	318.672035937731	1284.675460461145	1125.903725370761	252.117430807925	1533.297578369106	1079.051267798731	316.710739476713	952.334288491283	1120.106539797116	810.295172092189	970.481334204189	859.650038673377	836.430637914609	
